<svg xmlns="http://www.w3.org/2000/svg" width="1584" height="396" viewBox="0 0 1584 396" fill="none">
  <rect width="1584" height="396" fill="#FFFFFF"/>
  <line x1="1487.1" y1="71.3" x2="1540.9" y2="118.8" stroke="#0D9488" stroke-opacity="0.14" stroke-width="1.5"/>
  <line x1="1487.1" y1="71.3" x2="1422.4" y2="134.6" stroke="#0D9488" stroke-opacity="0.14" stroke-width="1.5"/>
  <line x1="1540.9" y1="118.8" x2="1519.4" y2="205.9" stroke="#0D9488" stroke-opacity="0.14" stroke-width="1.5"/>
  <line x1="1422.4" y1="134.6" x2="1390.1" y2="198.0" stroke="#0D9488" stroke-opacity="0.14" stroke-width="1.5"/>
  <line x1="1519.4" y1="205.9" x2="1454.7" y2="253.4" stroke="#0D9488" stroke-opacity="0.14" stroke-width="1.5"/>
  <line x1="1519.4" y1="205.9" x2="1557.1" y2="277.2" stroke="#0D9488" stroke-opacity="0.14" stroke-width="1.5"/>
  <line x1="1454.7" y1="253.4" x2="1497.8" y2="316.8" stroke="#0D9488" stroke-opacity="0.14" stroke-width="1.5"/>
  <line x1="1454.7" y1="253.4" x2="1438.6" y2="348.5" stroke="#0D9488" stroke-opacity="0.14" stroke-width="1.5"/>
  <line x1="1390.1" y1="198.0" x2="1357.8" y2="110.9" stroke="#0D9488" stroke-opacity="0.14" stroke-width="1.5"/>
  <line x1="1557.1" y1="277.2" x2="1497.8" y2="316.8" stroke="#0D9488" stroke-opacity="0.14" stroke-width="1.5"/>
  <circle cx="1487.1" cy="71.3" r="4.5" fill="#0D9488" fill-opacity="0.3"/>
  <circle cx="1540.9" cy="118.8" r="4.5" fill="#0D9488" fill-opacity="0.3"/>
  <circle cx="1422.4" cy="134.6" r="4.5" fill="#0D9488" fill-opacity="0.3"/>
  <circle cx="1519.4" cy="205.9" r="7" fill="#0D9488" fill-opacity="0.85"/>
  <circle cx="1454.7" cy="253.4" r="4.5" fill="#0D9488" fill-opacity="0.3"/>
  <circle cx="1557.1" cy="277.2" r="4.5" fill="#0D9488" fill-opacity="0.3"/>
  <circle cx="1390.1" cy="198.0" r="4.5" fill="#0D9488" fill-opacity="0.3"/>
  <circle cx="1497.8" cy="316.8" r="4.5" fill="#0D9488" fill-opacity="0.3"/>
  <circle cx="1438.6" cy="348.5" r="4.5" fill="#0D9488" fill-opacity="0.3"/>
  <circle cx="1357.8" cy="110.9" r="4.5" fill="#0D9488" fill-opacity="0.3"/>
  <path d="M6 8 V24" transform="translate(92.89583333333333 65.16666666666667) scale(4.114583333333333)" stroke="#0D9488" stroke-width="3.2" stroke-linecap="round" fill="none"/>
  <path d="M13.5 8 L16.7 24 L20 14.5 L23.3 24 L26.5 8" transform="translate(92.89583333333333 65.16666666666667) scale(4.114583333333333)" stroke="#1A1D23" stroke-width="3.2" stroke-linecap="round" stroke-linejoin="round" fill="none"/>
  <text x="235.515625" y="153.425" font-family="Space Grotesk" font-weight="600" font-size="65" letter-spacing="-1.3" fill="#1A1D23">Innovation Ways</text>
  <text x="111" y="246" font-family="Space Grotesk" font-weight="600" font-size="34" letter-spacing="-0.68" fill="#1A1D23">Mission-critical systems, built in the open.</text>
  <text x="111" y="295" font-family="Inter, Space Grotesk" font-weight="400" font-size="22" fill="#71757E">Telecom BSS engineering · Production-grade applied AI</text>
  <text x="111" y="348" font-family="Inter, Space Grotesk" font-weight="500" font-size="20" fill="#0D9488">innovation-ways.com   ·   github.com/innovation-ways</text>
</svg>
