<svg xmlns="http://www.w3.org/2000/svg" width="1584" height="396" viewBox="0 0 1584 396" fill="none">
  <rect width="1584" height="396" fill="#FFFFFF"/>
  <line x1="854.7" y1="230.8" x2="899.1" y2="252.6" stroke="#0D9488" stroke-opacity="0.14" stroke-width="1.5"/>
  <line x1="854.7" y1="230.8" x2="801.5" y2="259.9" stroke="#0D9488" stroke-opacity="0.14" stroke-width="1.5"/>
  <line x1="899.1" y1="252.6" x2="881.3" y2="292.7" stroke="#0D9488" stroke-opacity="0.14" stroke-width="1.5"/>
  <line x1="801.5" y1="259.9" x2="774.9" y2="289.1" stroke="#0D9488" stroke-opacity="0.14" stroke-width="1.5"/>
  <line x1="881.3" y1="292.7" x2="828.1" y2="314.6" stroke="#0D9488" stroke-opacity="0.14" stroke-width="1.5"/>
  <line x1="881.3" y1="292.7" x2="912.4" y2="325.5" stroke="#0D9488" stroke-opacity="0.14" stroke-width="1.5"/>
  <line x1="828.1" y1="314.6" x2="863.6" y2="343.7" stroke="#0D9488" stroke-opacity="0.14" stroke-width="1.5"/>
  <line x1="828.1" y1="314.6" x2="814.8" y2="358.3" stroke="#0D9488" stroke-opacity="0.14" stroke-width="1.5"/>
  <line x1="774.9" y1="289.1" x2="748.3" y2="249.0" stroke="#0D9488" stroke-opacity="0.14" stroke-width="1.5"/>
  <line x1="912.4" y1="325.5" x2="863.6" y2="343.7" stroke="#0D9488" stroke-opacity="0.14" stroke-width="1.5"/>
  <circle cx="854.7" cy="230.8" r="4.5" fill="#0D9488" fill-opacity="0.3"/>
  <circle cx="899.1" cy="252.6" r="4.5" fill="#0D9488" fill-opacity="0.3"/>
  <circle cx="801.5" cy="259.9" r="4.5" fill="#0D9488" fill-opacity="0.3"/>
  <circle cx="881.3" cy="292.7" r="7" fill="#0D9488" fill-opacity="0.85"/>
  <circle cx="828.1" cy="314.6" r="4.5" fill="#0D9488" fill-opacity="0.3"/>
  <circle cx="912.4" cy="325.5" r="4.5" fill="#0D9488" fill-opacity="0.3"/>
  <circle cx="774.9" cy="289.1" r="4.5" fill="#0D9488" fill-opacity="0.3"/>
  <circle cx="863.6" cy="343.7" r="4.5" fill="#0D9488" fill-opacity="0.3"/>
  <circle cx="814.8" cy="358.3" r="4.5" fill="#0D9488" fill-opacity="0.3"/>
  <circle cx="748.3" cy="249.0" r="4.5" fill="#0D9488" fill-opacity="0.3"/>
  <path d="M6 8 V24" transform="translate(92.89583333333333 65.16666666666667) scale(4.114583333333333)" stroke="#0D9488" stroke-width="3.2" stroke-linecap="round" fill="none"/>
  <path d="M13.5 8 L16.7 24 L20 14.5 L23.3 24 L26.5 8" transform="translate(92.89583333333333 65.16666666666667) scale(4.114583333333333)" stroke="#1A1D23" stroke-width="3.2" stroke-linecap="round" stroke-linejoin="round" fill="none"/>
  <text x="235.515625" y="153.425" font-family="Space Grotesk" font-weight="600" font-size="65" letter-spacing="-1.3" fill="#1A1D23">Innovation Ways</text>
  <text x="1473" y="182" text-anchor="end" font-family="Space Grotesk" font-weight="600" font-size="34" letter-spacing="-0.68" fill="#1A1D23">Mission-critical systems, built in the open.</text>
  <text x="1473" y="231" text-anchor="end" font-family="Inter, Space Grotesk" font-weight="400" font-size="22" fill="#71757E">Telecom BSS engineering · Production-grade applied AI</text>
  <text x="1473" y="275" text-anchor="end" font-family="Inter, Space Grotesk" font-weight="500" font-size="20" fill="#0D9488">innovation-ways.com   ·   github.com/innovation-ways</text>
</svg>
