<svg xmlns="http://www.w3.org/2000/svg" width="1128" height="191" viewBox="0 0 1128 191" fill="none">
  <rect width="1128" height="191" fill="#FFFFFF"/>
  <line x1="1059.0" y1="34.4" x2="1097.3" y2="57.3" stroke="#0D9488" stroke-opacity="0.14" stroke-width="1.5"/>
  <line x1="1059.0" y1="34.4" x2="1012.9" y2="64.9" stroke="#0D9488" stroke-opacity="0.14" stroke-width="1.5"/>
  <line x1="1097.3" y1="57.3" x2="1082.0" y2="99.3" stroke="#0D9488" stroke-opacity="0.14" stroke-width="1.5"/>
  <line x1="1012.9" y1="64.9" x2="989.9" y2="95.5" stroke="#0D9488" stroke-opacity="0.14" stroke-width="1.5"/>
  <line x1="1082.0" y1="99.3" x2="1036.0" y2="122.2" stroke="#0D9488" stroke-opacity="0.14" stroke-width="1.5"/>
  <line x1="1082.0" y1="99.3" x2="1108.8" y2="133.7" stroke="#0D9488" stroke-opacity="0.14" stroke-width="1.5"/>
  <line x1="1036.0" y1="122.2" x2="1066.6" y2="152.8" stroke="#0D9488" stroke-opacity="0.14" stroke-width="1.5"/>
  <line x1="1036.0" y1="122.2" x2="1024.4" y2="168.1" stroke="#0D9488" stroke-opacity="0.14" stroke-width="1.5"/>
  <line x1="989.9" y1="95.5" x2="966.9" y2="53.5" stroke="#0D9488" stroke-opacity="0.14" stroke-width="1.5"/>
  <line x1="1108.8" y1="133.7" x2="1066.6" y2="152.8" stroke="#0D9488" stroke-opacity="0.14" stroke-width="1.5"/>
  <circle cx="1059.0" cy="34.4" r="4.5" fill="#0D9488" fill-opacity="0.3"/>
  <circle cx="1097.3" cy="57.3" r="4.5" fill="#0D9488" fill-opacity="0.3"/>
  <circle cx="1012.9" cy="64.9" r="4.5" fill="#0D9488" fill-opacity="0.3"/>
  <circle cx="1082.0" cy="99.3" r="7" fill="#0D9488" fill-opacity="0.85"/>
  <circle cx="1036.0" cy="122.2" r="4.5" fill="#0D9488" fill-opacity="0.3"/>
  <circle cx="1108.8" cy="133.7" r="4.5" fill="#0D9488" fill-opacity="0.3"/>
  <circle cx="989.9" cy="95.5" r="4.5" fill="#0D9488" fill-opacity="0.3"/>
  <circle cx="1066.6" cy="152.8" r="4.5" fill="#0D9488" fill-opacity="0.3"/>
  <circle cx="1024.4" cy="168.1" r="4.5" fill="#0D9488" fill-opacity="0.3"/>
  <circle cx="966.9" cy="53.5" r="4.5" fill="#0D9488" fill-opacity="0.3"/>
  <path d="M6 8 V24" transform="translate(47.29166666666667 31.333333333333336) scale(1.9791666666666663)" stroke="#0D9488" stroke-width="3.2" stroke-linecap="round" fill="none"/>
  <path d="M13.5 8 L16.7 24 L20 14.5 L23.3 24 L26.5 8" transform="translate(47.29166666666667 31.333333333333336) scale(1.9791666666666663)" stroke="#1A1D23" stroke-width="3.2" stroke-linecap="round" stroke-linejoin="round" fill="none"/>
  <text x="115.90625" y="73.695" font-family="Space Grotesk" font-weight="600" font-size="31" letter-spacing="-0.62" fill="#1A1D23">Innovation Ways</text>
  <text x="56" y="141" font-family="Inter, Space Grotesk" font-weight="400" font-size="11" fill="#71757E">Telecom BSS engineering · Production-grade applied AI</text>
  <text x="56" y="168" font-family="Inter, Space Grotesk" font-weight="500" font-size="10" fill="#0D9488">innovation-ways.com   ·   github.com/innovation-ways</text>
</svg>
