<svg id="Layer_1" data-name="Layer 1" xmlns="http://www.w3.org/2000/svg" viewBox="0 0 45.01 45"><title>Orange S.A. logo - Brandlogos.net</title><rect width="45.01" height="45" style="fill:#ff7900"/><path d="M274.32,362.51a3.6,3.6,0,0,1-2.06.62,1.73,1.73,0,0,1-1.86-1.82c0-1.4,1.28-2.14,3.93-2.43v-.35c0-.45-.34-.72-1-.72a1.86,1.86,0,0,0-1.53.72l-1.11-.63a3.07,3.07,0,0,1,2.66-1.22c1.63,0,2.54.7,2.54,1.85,0,0,0,4.52,0,4.54h-1.46M272,361.19a.76.76,0,0,0,.74.81,2.31,2.31,0,0,0,1.52-.66v-1.48c-1.53.19-2.27.58-2.27,1.33" transform="translate(-256.6 -321.86)" style="fill:#fff"/><path d="M277.22,357l1.37-.19.14.74a3.49,3.49,0,0,1,2.14-.86,1.77,1.77,0,0,1,2,2V363h-1.65V359c0-.77-.2-1.11-.79-1.11a2.41,2.41,0,0,0-1.53.69V363h-1.63" transform="translate(-256.6 -321.86)" style="fill:#fff"/><path d="M293.71,363.17c-1.84,0-2.94-1.18-2.94-3.24s1.11-3.27,2.92-3.27,2.87,1.15,2.87,3.18c0,.11,0,.22,0,.33h-4.15q0,1.78,1.47,1.78a1.59,1.59,0,0,0,1.42-.8l1.2.67a3,3,0,0,1-2.77,1.35m1.23-4.07a1.19,1.19,0,0,0-1.25-1.33c-.74,0-1.21.48-1.28,1.33Z" transform="translate(-256.6 -321.86)" style="fill:#fff"/><path d="M262.25,363.24a3.31,3.31,0,1,1,3.09-3.3,3,3,0,0,1-3.09,3.3m0-5.22c-1.23,0-1.46,1.11-1.46,1.92s.23,1.91,1.46,1.91,1.45-1.11,1.45-1.91-.22-1.92-1.45-1.92" transform="translate(-256.6 -321.86)" style="fill:#fff"/><path d="M266.46,356.8H268v.73a2.43,2.43,0,0,1,1.72-.86H270v1.54h-.08c-.71,0-1.49.11-1.75.67v4.16h-1.67" transform="translate(-256.6 -321.86)" style="fill:#fff"/><path d="M286.85,361.71c1.25,0,1.35-1.28,1.35-2.11s-.48-1.77-1.36-1.77c-.59,0-1.25.43-1.25,1.84,0,.77.06,2,1.26,2m2.93-4.94v5.92c0,1.05-.08,2.77-3.06,2.79-1.23,0-2.36-.49-2.59-1.56l1.62-.26c.07.31.26.62,1.18.62s1.26-.41,1.26-1.39v-.72l0,0a1.65,1.65,0,0,1-1.62.91c-1.45,0-2.6-1-2.6-3.13s1.18-3.26,2.51-3.26,1.71.57,1.82.87h0l.13-.75Z" transform="translate(-256.6 -321.86)" style="fill:#fff"/><path d="M297.2,354.7h-.64v1.79h-.34V354.7h-.65v-.28h1.63m2.7,2.07h-.35v-1.73h0l-.68,1.73h-.22l-.68-1.73h0v1.73h-.34v-2.07h.52l.62,1.57.6-1.57h.53Z" transform="translate(-256.6 -321.86)" style="fill:#fff"/></svg>